<svg xmlns="http://www.w3.org/2000/svg"><style>:root svg:not(:target){display:none}</style><svg aria-label="Стрелочка вправо." fill="none" id="breadcrumbs-arrow" viewBox="0 0 6 10"><path d="m1 1 4 4-4 4" stroke="currentColor"></path></svg><svg aria-label="Facebook logo." fill="none" id="facebook" viewBox="0 0 11 19"><path d="M10 1H7.545a4.015 4.015 0 0 0-2.892 1.245A4.335 4.335 0 0 0 3.455 5.25V7.8H1v3.4h2.455V18h3.272v-6.8h2.455L10 7.8H6.727V5.25c0-.225.086-.442.24-.601a.803.803 0 0 1 .578-.249H10V1Z" stroke="currentColor" stroke-linecap="round" stroke-linejoin="round"></path></svg><svg aria-label="Instagram logo." fill="none" id="instagram" viewBox="0 0 19 19"><path d="M14.175 4.825h.008M5.25 1h8.5A4.25 4.25 0 0 1 18 5.25v8.5A4.25 4.25 0 0 1 13.75 18h-8.5A4.25 4.25 0 0 1 1 13.75v-8.5A4.25 4.25 0 0 1 5.25 1Zm7.65 7.964a3.4 3.4 0 1 1-6.726.998 3.4 3.4 0 0 1 6.726-.998Z" stroke="currentColor" stroke-linecap="round" stroke-linejoin="round"></path></svg><svg aria-label="Логотип COSMOSHOP." fill="none" id="side-logo" viewBox="0 0 133 42"><path d="m58.87 19.26-.669.516c-.797-.992-1.822-1.488-3.074-1.488-1.02 0-1.901.36-2.642 1.08-.734.72-1.1 1.604-1.1 2.652 0 1.04.358 1.912 1.076 2.616.725.696 1.63 1.044 2.714 1.044 1.212 0 2.22-.472 3.026-1.416l.67.516c-.423.56-.957.988-1.603 1.284-.646.288-1.36.432-2.14.432-1.364 0-2.48-.432-3.349-1.296-.869-.864-1.304-1.956-1.304-3.276 0-.816.2-1.568.598-2.256a4.326 4.326 0 0 1 1.675-1.632 4.74 4.74 0 0 1 2.308-.588c.821 0 1.559.156 2.212.468.654.312 1.188.76 1.603 1.344ZM60.826 22.008c0-.832.2-1.6.598-2.304a4.351 4.351 0 0 1 1.638-1.656c.694-.4 1.447-.6 2.26-.6.822 0 1.583.2 2.285.6.71.392 1.263.94 1.662 1.644a4.44 4.44 0 0 1 .61 2.28c0 .816-.2 1.576-.598 2.28a4.35 4.35 0 0 1-1.65 1.644c-.694.4-1.451.6-2.273.6-.813 0-1.57-.196-2.272-.588a4.44 4.44 0 0 1-2.26-3.9Zm8.156-.036c0-1.032-.359-1.904-1.076-2.616a3.497 3.497 0 0 0-2.572-1.068c-1.028 0-1.89.36-2.583 1.08-.685.712-1.028 1.584-1.028 2.616 0 1.024.355 1.892 1.064 2.604a3.497 3.497 0 0 0 2.571 1.068c1.005 0 1.858-.348 2.56-1.044.71-.696 1.064-1.576 1.064-2.64ZM71.304 24.672l.73-.432c.51.944 1.103 1.416 1.781 1.416.439 0 .813-.14 1.124-.42.311-.28.467-.628.467-1.044 0-.328-.132-.66-.395-.996-.263-.336-.702-.732-1.316-1.188-.605-.464-1.016-.808-1.231-1.032a2.519 2.519 0 0 1-.467-.732 2.31 2.31 0 0 1-.143-.792c0-.56.195-1.032.586-1.416.398-.392.897-.588 1.495-.588.47 0 .88.12 1.231.36.351.232.69.58 1.017 1.044l-.694.54a4.28 4.28 0 0 0-.693-.756c-.24-.2-.535-.3-.885-.3-.343 0-.626.104-.85.312a1.054 1.054 0 0 0-.322.792c0 .32.095.6.287.84.2.232.642.604 1.327 1.116.694.512 1.196.984 1.507 1.416.319.432.478.888.478 1.368 0 .624-.243 1.168-.73 1.632-.477.456-1.035.684-1.673.684-1.124 0-2.002-.608-2.631-1.824ZM78.36 26.28l1.22-8.616h.132l3.492 7.068 3.468-7.068h.131l1.232 8.616h-.85l-.836-6.168-3.038 6.168h-.215l-3.074-6.216-.837 6.216h-.825ZM89.96 22.008c0-.832.2-1.6.598-2.304a4.351 4.351 0 0 1 1.638-1.656c.694-.4 1.447-.6 2.26-.6.822 0 1.583.2 2.285.6.71.392 1.263.94 1.662 1.644a4.44 4.44 0 0 1 .61 2.28c0 .816-.2 1.576-.598 2.28a4.35 4.35 0 0 1-1.65 1.644c-.694.4-1.451.6-2.273.6-.813 0-1.57-.196-2.272-.588a4.44 4.44 0 0 1-2.26-3.9Zm8.156-.036c0-1.032-.359-1.904-1.076-2.616a3.497 3.497 0 0 0-2.572-1.068c-1.028 0-1.89.36-2.583 1.08-.686.712-1.028 1.584-1.028 2.616 0 1.024.355 1.892 1.064 2.604a3.497 3.497 0 0 0 2.571 1.068c1.005 0 1.858-.348 2.56-1.044.71-.696 1.064-1.576 1.064-2.64ZM100.438 24.672l.729-.432c.51.944 1.104 1.416 1.782 1.416.439 0 .813-.14 1.124-.42.311-.28.467-.628.467-1.044 0-.328-.132-.66-.395-.996-.263-.336-.702-.732-1.316-1.188-.605-.464-1.016-.808-1.231-1.032a2.515 2.515 0 0 1-.467-.732 2.326 2.326 0 0 1-.143-.792c0-.56.195-1.032.586-1.416.398-.392.897-.588 1.495-.588.47 0 .881.12 1.231.36.351.232.69.58 1.017 1.044l-.694.54a4.277 4.277 0 0 0-.693-.756c-.239-.2-.534-.3-.885-.3-.343 0-.626.104-.849.312a1.052 1.052 0 0 0-.323.792c0 .32.095.6.287.84.199.232.642.604 1.327 1.116.694.512 1.196.984 1.507 1.416.319.432.478.888.478 1.368 0 .624-.243 1.168-.729 1.632-.478.456-1.037.684-1.674.684-1.125 0-2.002-.608-2.631-1.824ZM107.865 17.664h.873v3.612h4.365v-3.612h.861v8.616h-.861v-4.164h-4.365v4.164h-.873v-8.616ZM116.268 22.008c0-.832.199-1.6.597-2.304a4.352 4.352 0 0 1 1.639-1.656c.693-.4 1.447-.6 2.26-.6.821 0 1.583.2 2.284.6a4.22 4.22 0 0 1 1.663 1.644c.406.696.61 1.456.61 2.28 0 .816-.2 1.576-.598 2.28a4.352 4.352 0 0 1-1.651 1.644c-.693.4-1.451.6-2.272.6a4.581 4.581 0 0 1-2.272-.588 4.44 4.44 0 0 1-2.26-3.9Zm8.156-.036c0-1.032-.359-1.904-1.077-2.616a3.495 3.495 0 0 0-2.571-1.068c-1.028 0-1.889.36-2.583 1.08-.686.712-1.029 1.584-1.029 2.616 0 1.024.355 1.892 1.065 2.604a3.495 3.495 0 0 0 2.571 1.068c1.005 0 1.858-.348 2.559-1.044.71-.696 1.065-1.576 1.065-2.64ZM127.63 17.664h1.71c1.013 0 1.675.04 1.986.12.311.08.594.22.849.42.263.2.466.452.61.756.143.296.215.628.215.996 0 .592-.159 1.076-.478 1.452a2.125 2.125 0 0 1-1.208.72c-.479.096-1.216.144-2.213.144h-.61v4.008h-.861v-8.616Zm.861.84v2.94h1.447c.869.016 1.448-.124 1.735-.42.287-.304.43-.66.43-1.068 0-.968-.698-1.452-2.093-1.452h-1.519ZM16.357 10.34C7.775 10.34.794 17.264.794 25.777c0 8.512 6.98 15.437 15.563 15.437 8.58 0 15.56-6.925 15.56-15.437 0-8.513-6.98-15.438-15.56-15.438Zm0 31.66C7.337 42 0 34.722 0 25.778 0 16.832 7.337 9.555 16.357 9.555c9.019 0 16.354 7.277 16.354 16.223C32.711 34.722 25.376 42 16.357 42Z" fill="currentColor"></path><path d="M31.383 32.187a.392.392 0 0 1-.073-.78c7.387-1.338 12.746-7.725 12.746-15.184 0-8.512-6.984-15.437-15.563-15.437-8.582 0-15.564 6.925-15.564 15.437 0 3.675 1.324 7.236 3.729 10.026a.39.39 0 0 1-.045.553.4.4 0 0 1-.56-.043 16.15 16.15 0 0 1-3.917-10.536C12.136 7.278 19.473 0 28.493 0c9.018 0 16.354 7.278 16.354 16.223 0 7.838-5.63 14.55-13.394 15.957l-.07.007Z" fill="currentColor"></path></svg><svg aria-label="Twitter logo." fill="none" id="twitter" viewBox="0 0 20 17"><path d="M19 1.008a8.84 8.84 0 0 1-2.57 1.28 3.653 3.653 0 0 0-1.875-1.176 3.592 3.592 0 0 0-2.197.134 3.68 3.68 0 0 0-1.726 1.396A3.804 3.804 0 0 0 10 4.795v.836a8.568 8.568 0 0 1-4.147-.948 8.778 8.778 0 0 1-3.217-2.839S-.636 9.368 6.727 12.712A9.376 9.376 0 0 1 1 14.384c7.364 4.18 16.364 0 16.364-9.614-.001-.233-.023-.465-.066-.694A6.49 6.49 0 0 0 19 1.008v0Z" stroke="currentColor" stroke-linecap="round" stroke-linejoin="round"></path></svg></svg>